<svg xmlns="http://www.w3.org/2000/svg" viewBox="0 0 1241.97 435.46"><g id="Capa_2" data-name="Capa 2"><g id="Capa_1-2" data-name="Capa 1"><path d="M260.77,194.66c0,46.94-31.83,71.83-92.64,71.83H0V227.72l27.34-4.49v-180L0,38.77V0H156.3c61.22,0,93,24.9,93,71.83,0,27.75-11.83,47.75-34.69,58.76C245.27,140.79,260.77,162.43,260.77,194.66ZM92.63,107.33h54.28c22.86,0,34.69-9.79,34.69-27.34s-11.83-26.93-34.69-26.93H92.63Zm65.71,106.11c22.86,0,34.69-9.39,34.69-26.94s-11.83-27.75-34.69-27.75H92.63v54.69Z"/><path d="M545.21,194.66c0,46.94-31.83,71.83-92.64,71.83H284.44V227.72l27.34-4.49v-180l-27.34-4.49V0h156.3c61.22,0,93,24.9,93,71.83,0,27.75-11.83,47.75-34.69,58.76C529.71,140.79,545.21,162.43,545.21,194.66ZM377.07,107.33h54.28C454.2,107.33,466,97.54,466,80S454.2,53.06,431.35,53.06H377.07Zm65.71,106.11c22.86,0,34.69-9.39,34.69-26.94s-11.83-27.75-34.69-27.75H377.07v54.69Z"/><polygon points="661.52 43.26 688.86 38.77 688.86 0 568.88 0 568.88 38.77 596.22 43.26 596.22 266.49 661.59 266.49 661.59 227.72 661.52 223.23 661.52 43.26"/><path d="M852,240c-4.49,2.86-11.43,3.68-17.14,3.68-20,0-34.28-11.84-89-84.89l-20.79-25.59L685.56,186.1c74.68,112.63,95,113.12,137.45,113.12,18,0,27.35-3.27,38.78-10.61Z"/><polygon points="740.03 112.2 791.18 46.12 830.77 38.77 830.77 0 740.03 0 740.03 42.36 740.03 112.2"/><path d="M935.15,116.85h-9l.07,47.82q0,17.31-11.6,26.73-9.76,7.95-23.41,8a46,46,0,0,1-12.33-1.47A29.6,29.6,0,0,1,867,191.47q-5.76-5.25-9.41-14.51h18.31a18.94,18.94,0,0,0,6.67,6.57,20.33,20.33,0,0,0,10.11,2.26,17.38,17.38,0,0,0,12.91-5.47,16,16,0,0,0,5-11.31v-7.59q-5.55,6.21-9.12,8.17-4.59,2.55-12.55,2.56-15.6,0-25.38-10.58-9.35-10.14-9.34-25.17,0-13.94,11-24.73,10.68-10.5,23.47-10.5,8.64,0,13.76,2.77,3.95,2.11,9.5,8.39V102.4h23.27Zm-23.27,19.51a19.55,19.55,0,0,0-6.2-14.49,20.5,20.5,0,0,0-14.81-6,20.8,20.8,0,0,0-14.59,35.68,20.62,20.62,0,0,0,15,6.19,19.38,19.38,0,0,0,14.55-6.3A21,21,0,0,0,911.88,136.36Z"/><path d="M986.21,117.72a20.91,20.91,0,0,0-7.51,1.4,18,18,0,0,0-5.43,3.1A21.56,21.56,0,0,0,969,127.3a13.5,13.5,0,0,0-2.41,6.94v22h9v14.59H942V156.24h8.83V116.85H942.3V102.4h23.27v11.31A24.26,24.26,0,0,1,970,108a20,20,0,0,1,4.12-3.17,30.29,30.29,0,0,1,4.78-1.79,25.37,25.37,0,0,1,7.29-1.31Z"/><path d="M1066.9,135.89q0,15.69-10.65,26a37.18,37.18,0,0,1-51.8-.29A34.67,34.67,0,0,1,993.66,136a33.38,33.38,0,0,1,11-25.27,37,37,0,0,1,26.23-10.32q15.24,0,25.64,10.32A34.09,34.09,0,0,1,1066.9,135.89Zm-15.61.36a19.54,19.54,0,0,0-6.1-14.4,20,20,0,0,0-14.62-6,21.25,21.25,0,0,0-14.88,5.76,18.44,18.44,0,0,0-6.27,14.15,20.79,20.79,0,0,0,6.05,15,19.54,19.54,0,0,0,14.59,6.27,20.84,20.84,0,0,0,15-6A19.64,19.64,0,0,0,1051.29,136.25Z"/><path d="M1150.27,170.83H1128v-8.9a24.21,24.21,0,0,1-9.63,8,27.34,27.34,0,0,1-11.53,2.48q-10.57,0-17.06-7.33t-6.5-19.92V116.85h-8.6V102.4h23.78v42a14.39,14.39,0,0,0,3.64,9.83,11.65,11.65,0,0,0,9.12,4.16,15.6,15.6,0,0,0,15.4-14.71v-26.8H1118V102.4h23.92v53.7h8.39Z"/><path d="M1242,136.33a35.61,35.61,0,0,1-35.38,35.52,32,32,0,0,1-13.31-2.51,36.53,36.53,0,0,1-11-8.36v20h9.26v15.25h-34.65V181H1166V116.85h-8.68V102.4h25.24v10q5.33-6,10-8.53a27.29,27.29,0,0,1,13.28-3,35.2,35.2,0,0,1,25.42,10.39A33.67,33.67,0,0,1,1242,136.33Zm-16.78-.55a19.26,19.26,0,0,0-6.28-14.47,20.81,20.81,0,0,0-14.83-6,21.61,21.61,0,0,0-15.35,6.13,19.59,19.59,0,0,0-6.5,14.77,19.85,19.85,0,0,0,6.35,14.83,21,21,0,0,0,15.13,6.14,20.77,20.77,0,0,0,15.12-6.28A20.51,20.51,0,0,0,1225.19,135.78Z"/><path d="M47.2,354a21.47,21.47,0,0,1,9.39,8.31A24.23,24.23,0,0,1,59.85,375a34.13,34.13,0,0,1-.61,6.44,36,36,0,0,1-6.74,15.95A34.82,34.82,0,0,1,39.42,408a40.64,40.64,0,0,1-17.56,3.74H.65l10.78-60.68H32.64A33.68,33.68,0,0,1,47.2,354Zm-8.26,42.47q6.14-5.39,7.87-14.95a33.68,33.68,0,0,0,.43-5q0-7.31-4.3-11.3t-12.56-4H21.86l-7.13,40.6h8.52Q32.81,401.82,38.94,396.43Z"/><path d="M82.94,363.57l-8.51,48.16H62.17l8.52-48.16Zm-9.64-7.39A5.5,5.5,0,0,1,71.56,352a7.86,7.86,0,0,1,2.65-6,8.82,8.82,0,0,1,6.21-2.48,6.3,6.3,0,0,1,4.52,1.66,5.5,5.5,0,0,1,1.74,4.17,7.9,7.9,0,0,1-2.61,6,8.6,8.6,0,0,1-6.17,2.48A6.39,6.39,0,0,1,73.3,356.18Z"/><path d="M102.7,348.1q5.74-4.19,15.83-3.92l-1.74,10.26c-2.9-.06-5,.44-6.43,1.48s-2.32,2.93-2.79,5.65l-.34,2h8.43l-1.74,10h-8.43l-6.78,38.16H86.45l6.78-38.16H87.67l1.73-10H95l.43-2.43Q97,352.26,102.7,348.1Z"/><path d="M132.16,348.1q5.75-4.19,15.83-3.92l-1.74,10.26c-2.9-.06-5,.44-6.43,1.48s-2.32,2.93-2.79,5.65l-.34,2h8.43l-1.74,10H135l-6.78,38.16H115.91l6.78-38.16h-5.56l1.73-10h5.57l.43-2.43Q126.44,352.26,132.16,348.1Z"/><path d="M186.3,367.87q5.38,5.08,5.39,13.69a25.4,25.4,0,0,1-.44,5,41.84,41.84,0,0,1-1.13,4.52H154.91a15.11,15.11,0,0,0-.08,1.74,9.37,9.37,0,0,0,2.65,7.08,9.65,9.65,0,0,0,7,2.57,12,12,0,0,0,6.3-1.61,13,13,0,0,0,4.3-4.22h13.13a27.36,27.36,0,0,1-10,11.44A27,27,0,0,1,163,412.51q-9.21,0-14.78-5.21t-5.56-14.17a30.43,30.43,0,0,1,.52-5.48,31.53,31.53,0,0,1,5.35-13.13,27.55,27.55,0,0,1,10-8.69,28.53,28.53,0,0,1,13.12-3Q180.9,362.79,186.3,367.87Zm-7,13.78a8.22,8.22,0,0,0-2.69-6.52,10.38,10.38,0,0,0-7-2.35,12.89,12.89,0,0,0-8.26,2.92,15.3,15.3,0,0,0-5.13,7.95h22.95A19.7,19.7,0,0,0,179.34,381.65Z"/><path d="M220.56,365.31a17.64,17.64,0,0,1,9-2.44l-2.26,12.78h-3.22a14.53,14.53,0,0,0-8.65,2.35q-3.25,2.36-4.74,8l-4.52,25.73H194l8.51-48.16h12.26l-1.48,8.52A23.67,23.67,0,0,1,220.56,365.31Z"/><path d="M271.07,367.87q5.4,5.08,5.39,13.69a25.45,25.45,0,0,1-.43,5A44.33,44.33,0,0,1,274.9,391H239.69a12.8,12.8,0,0,0-.09,1.74,9.4,9.4,0,0,0,2.65,7.08,9.65,9.65,0,0,0,7,2.57,11.9,11.9,0,0,0,6.3-1.61,13,13,0,0,0,4.31-4.22H273A27.45,27.45,0,0,1,263,408a27,27,0,0,1-15.26,4.47q-9.21,0-14.77-5.21t-5.57-14.17a33.86,33.86,0,0,1,5.87-18.61,27.63,27.63,0,0,1,10-8.69,28.57,28.57,0,0,1,13.13-3Q265.68,362.79,271.07,367.87Zm-6.95,13.78a8.19,8.19,0,0,0-2.7-6.52,10.34,10.34,0,0,0-7-2.35,12.93,12.93,0,0,0-8.26,2.92,15.43,15.43,0,0,0-5.13,7.95h22.95A17.73,17.73,0,0,0,264.12,381.65Z"/><path d="M325.8,366.92q4.31,4,4.31,11.51a26.83,26.83,0,0,1-.44,5.05l-5,28.25H312.55l4.69-26.6a17.84,17.84,0,0,0,.26-3q0-4.35-2.3-6.61a9,9,0,0,0-6.57-2.26,12.42,12.42,0,0,0-8.3,2.91,14.37,14.37,0,0,0-4.56,8.39L291,411.73H278.73l8.52-48.16h12.26l-1.05,5.91a21.71,21.71,0,0,1,7.05-4.82,21,21,0,0,1,8.51-1.79Q321.51,362.87,325.8,366.92Z"/><path d="M350.6,396.86a8.68,8.68,0,0,0-.09,1.4,2.85,2.85,0,0,0,1,2.47,5.72,5.72,0,0,0,3.35.74h5.73l-1.82,10.26H351q-13,0-13-10.87a23.9,23.9,0,0,1,.35-4.08l4.09-23.21h-5.74l1.74-10h5.82l2.09-11.91H358.6l-2.09,11.91H367.2l-1.74,10H354.68Z"/><path d="M400.1,365.26a37.17,37.17,0,0,1,13-11,35.41,35.41,0,0,1,16.38-4q10.17,0,17,5.21a21.49,21.49,0,0,1,8.17,14.44h-14a11.41,11.41,0,0,0-4.78-6.31,15.39,15.39,0,0,0-8.35-2.13,20.66,20.66,0,0,0-9.86,2.44,21.25,21.25,0,0,0-7.65,6.95,26.3,26.3,0,0,0-4.13,10.43,31.05,31.05,0,0,0-.44,4.61q0,7.05,4.05,11.13t11,4.08a19.06,19.06,0,0,0,16.17-8.51h14a34.85,34.85,0,0,1-13.26,14.47,35.53,35.53,0,0,1-18.73,5.17,28.7,28.7,0,0,1-13.52-3.08,22.07,22.07,0,0,1-9.09-8.74,25.78,25.78,0,0,1-3.21-12.95,37.41,37.41,0,0,1,7.34-22.22Z"/><path d="M465.86,410a17.91,17.91,0,0,1-7.35-7.13,21.11,21.11,0,0,1-2.61-10.6,29.39,29.39,0,0,1,3.87-14.91,28.61,28.61,0,0,1,10.61-10.65,29.3,29.3,0,0,1,15-3.91,23,23,0,0,1,11,2.56,18.4,18.4,0,0,1,7.48,7.17,20.89,20.89,0,0,1,2.65,10.61,29,29,0,0,1-3.91,14.95,28.36,28.36,0,0,1-10.74,10.56,30,30,0,0,1-15.08,3.87A22.87,22.87,0,0,1,465.86,410Zm20.47-10.43a17.08,17.08,0,0,0,5.57-6.69,20.13,20.13,0,0,0,2-8.78q0-5.22-2.91-8a10.13,10.13,0,0,0-7.34-2.82,13,13,0,0,0-7.87,2.52,16.8,16.8,0,0,0-5.35,6.74,21.39,21.39,0,0,0-1.91,8.91c0,3.42.91,6.05,2.74,7.91a9.61,9.61,0,0,0,7.17,2.78A13.39,13.39,0,0,0,486.33,399.56Z"/><path d="M556,366.92q4.31,4,4.31,11.51a26.83,26.83,0,0,1-.44,5.05l-5,28.25H542.71l4.69-26.6a18.91,18.91,0,0,0,.26-3q0-4.35-2.3-6.61a9,9,0,0,0-6.57-2.26,12.42,12.42,0,0,0-8.3,2.91,14.37,14.37,0,0,0-4.56,8.39l-4.78,27.21H508.89l8.52-48.16h12.26l-1,5.91a21.78,21.78,0,0,1,7-4.82,21.11,21.11,0,0,1,8.52-1.79Q551.67,362.87,556,366.92Z"/><path d="M573.6,410.73a16.31,16.31,0,0,1-6.78-5,11.51,11.51,0,0,1-2.48-7.26,17.54,17.54,0,0,1,.18-2h11.82a5.57,5.57,0,0,0,1.83,4.91,8.54,8.54,0,0,0,5.91,1.87,12,12,0,0,0,5.78-1.26,4,4,0,0,0,2.3-3.7,3.92,3.92,0,0,0-2.13-3.47,38.56,38.56,0,0,0-6.74-3,63.82,63.82,0,0,1-7.65-3.22,15.71,15.71,0,0,1-5.21-4.34,11.1,11.1,0,0,1-2.17-7.05,12.3,12.3,0,0,1,2.47-7.56,16.08,16.08,0,0,1,6.91-5.13,26.71,26.71,0,0,1,10.18-1.82,24,24,0,0,1,9.64,1.82,15.09,15.09,0,0,1,6.48,5.09,12.52,12.52,0,0,1,2.3,7.43,11.84,11.84,0,0,1-.08,1.57h-11.3a5.59,5.59,0,0,0-1.74-4.87,8.37,8.37,0,0,0-5.83-1.83,9,9,0,0,0-5.13,1.35,4.15,4.15,0,0,0-2,3.61,4.25,4.25,0,0,0,2.26,3.69,37.82,37.82,0,0,0,7,3.17,70.47,70.47,0,0,1,7.52,3.35,15.86,15.86,0,0,1,4.91,4.17A10.45,10.45,0,0,1,603.9,398a11.85,11.85,0,0,1-2.7,7.74,16.63,16.63,0,0,1-7.39,5,30.33,30.33,0,0,1-10.6,1.74A24.86,24.86,0,0,1,573.6,410.73Z"/><path d="M663.23,363.57l-8.52,48.16H642.54l1-6.09a19.36,19.36,0,0,1-6.87,4.92,21.4,21.4,0,0,1-8.6,1.78q-7.49,0-11.82-4t-4.35-11.52a25.45,25.45,0,0,1,.43-5l5-28.25H629.5l-4.69,26.51a18,18,0,0,0-.27,3.05,8.79,8.79,0,0,0,2.35,6.56,9,9,0,0,0,6.61,2.3,12.24,12.24,0,0,0,8.43-3.08,14.5,14.5,0,0,0,4.43-8.83l4.7-26.51Z"/><path d="M688.9,347.4l-11.39,64.33H665.25l11.39-64.33Z"/><path d="M704.24,396.86a10.26,10.26,0,0,0-.08,1.4,2.85,2.85,0,0,0,1,2.47,5.69,5.69,0,0,0,3.34.74h5.74l-1.82,10.26h-7.74q-13,0-13-10.87a22.93,22.93,0,0,1,.35-4.08l4.08-23.21h-5.74l1.74-10h5.83L700,351.66h12.26l-2.08,11.91h10.69l-1.74,10H708.33Z"/><path d="M740.66,363.57l-8.52,48.16H719.88l8.52-48.16ZM731,356.18a5.5,5.5,0,0,1-1.74-4.17,7.86,7.86,0,0,1,2.65-6,8.83,8.83,0,0,1,6.22-2.48,6.31,6.31,0,0,1,4.52,1.66,5.5,5.5,0,0,1,1.74,4.17,7.9,7.9,0,0,1-2.61,6,8.64,8.64,0,0,1-6.17,2.48A6.41,6.41,0,0,1,731,356.18Z"/><path d="M789.58,366.92q4.3,4,4.31,11.51a26.83,26.83,0,0,1-.44,5.05l-5,28.25H776.33l4.69-26.6a17.84,17.84,0,0,0,.26-3q0-4.35-2.3-6.61a9,9,0,0,0-6.56-2.26,12.43,12.43,0,0,0-8.31,2.91,14.37,14.37,0,0,0-4.56,8.39l-4.78,27.21H742.51L751,363.57h12.26l-1,5.91a21.71,21.71,0,0,1,7-4.82,21,21,0,0,1,8.51-1.79Q785.29,362.87,789.58,366.92Z"/><path d="M834.92,364.92a12.3,12.3,0,0,1,5.35,5.52l1.21-6.87h12.26l-8.52,48.51A30.06,30.06,0,0,1,840.35,424a26.14,26.14,0,0,1-9.56,8.35,29,29,0,0,1-13.56,3.08q-10.17,0-15.87-4.78t-5.17-13h12.08a7.06,7.06,0,0,0,3.18,5.26,12.58,12.58,0,0,0,7.34,2,13.76,13.76,0,0,0,9.17-3.18q3.79-3.17,5-9.6l1.31-7.48a24,24,0,0,1-7.44,5.65,21.32,21.32,0,0,1-9.78,2.26,18.42,18.42,0,0,1-9.43-2.39,16.44,16.44,0,0,1-6.43-6.78,21.59,21.59,0,0,1-2.3-10.21,32.27,32.27,0,0,1,.52-5.65,32.88,32.88,0,0,1,5.17-13,27.27,27.27,0,0,1,9.43-8.69,24.09,24.09,0,0,1,11.74-3A18.42,18.42,0,0,1,834.92,364.92Zm2.65,19.43q0-5.13-3-8a10.45,10.45,0,0,0-7.52-2.87,14,14,0,0,0-6.56,1.65A16,16,0,0,0,815,380a17.6,17.6,0,0,0-3.13,7.52,20.52,20.52,0,0,0-.26,3.13,11.19,11.19,0,0,0,2.95,8.21,10.07,10.07,0,0,0,7.48,3,14,14,0,0,0,6.61-1.7,15.88,15.88,0,0,0,5.52-4.91,18.39,18.39,0,0,0,3.08-7.56A24.91,24.91,0,0,0,837.57,384.35Z"/></g></g></svg>