<svg xmlns="http://www.w3.org/2000/svg" xmlns:xlink="http://www.w3.org/1999/xlink" width="167.438" height="47.468" viewBox="0 0 167.438 47.468"><defs><style>.a{fill:#071d49;}.b{clip-path:url(#a);}</style><clipPath id="a"><path class="a" d="M0-28.014H167.438V-75.482H0Z" transform="translate(0 75.482)"/></clipPath></defs><g transform="translate(0 75.482)"><g class="b" transform="translate(0 -75.482)"><g transform="translate(0 22.297)"><path class="a" d="M0-10.866V-24.537l8.21-4.74,8.785,5.072a6.3,6.3,0,0,1,3.147,5.452v9.777L11.708-4.107Z" transform="translate(0 29.277)"/></g><g transform="translate(26.69 22.297)"><path class="a" d="M-11.888-10.866V-24.537l-8.21-4.74-8.785,5.072a6.3,6.3,0,0,0-3.147,5.452v9.777L-23.6-4.107Z" transform="translate(32.03 29.277)"/></g><g transform="translate(56.644 10.744)"><path class="a" d="M-10.019-21.674a20.26,20.26,0,0,1-11.329-3.014,12.645,12.645,0,0,1-5.647-8.7h7.276q1.662,5.753,10.047,5.752A12.256,12.256,0,0,0-3.61-28.914a4.1,4.1,0,0,0,2.252-3.776q0-4.018-5.682-4.365l-7.76-.624a14.571,14.571,0,0,1-8.073-2.876,8.39,8.39,0,0,1-3.083-6.963,9.215,9.215,0,0,1,4.088-8.037q4.087-2.839,10.6-2.841A19.837,19.837,0,0,1-.492-55.626a12.645,12.645,0,0,1,5.647,8.315H-2.19a7.091,7.091,0,0,0-3.534-3.95,12.222,12.222,0,0,0-5.543-1.247,11.329,11.329,0,0,0-5.647,1.213,3.828,3.828,0,0,0-2.114,3.5q0,3.812,5.613,4.157l7.553.555q5.4.415,8.419,2.875A8.559,8.559,0,0,1,5.57-33.176a9.748,9.748,0,0,1-4.33,8.488q-4.332,3.014-11.259,3.014" transform="translate(26.995 58.397)"/></g><g transform="translate(92.257 1.173)"><path class="a" d="M-11.409-5.649A16.936,16.936,0,0,1,1.237-.417a18.064,18.064,0,0,1,5.093,13.13A17.716,17.716,0,0,1,1.063,25.878a18.158,18.158,0,0,1-13.3,5.2q-8.175,0-13.339-5.162A17.789,17.789,0,0,1-30.74,12.782v-28h6.928V.448a13.766,13.766,0,0,1,5.3-4.434,15.8,15.8,0,0,1,7.1-1.663M-23.673,12.713A11.543,11.543,0,0,0-20.52,21.1a11.084,11.084,0,0,0,8.349,3.257,11.026,11.026,0,0,0,8.176-3.291A11.375,11.375,0,0,0-.738,12.713,11.407,11.407,0,0,0-3.994,4.4,10.967,10.967,0,0,0-12.17,1.072,11.047,11.047,0,0,0-20.415,4.4a11.4,11.4,0,0,0-3.257,8.314" transform="translate(30.74 15.22)"/></g><g transform="translate(132.375 10.744)"><path class="a" d="M-16.157-14.763a10.542,10.542,0,0,1-2.951,3.083,10.7,10.7,0,0,1-6.271,1.905,10.493,10.493,0,0,1-7.968-3.29,11.657,11.657,0,0,1-3.118-8.351,11.609,11.609,0,0,1,3.153-8.314,10.468,10.468,0,0,1,7.933-3.325,10.664,10.664,0,0,1,6.306,1.905,10.465,10.465,0,0,1,2.485,2.459h7.9A16.5,16.5,0,0,0-13.98-36a17.747,17.747,0,0,0-11.4-3.776,17.554,17.554,0,0,0-12.992,5.2,17.9,17.9,0,0,0-5.162,13.165A17.9,17.9,0,0,0-38.37-8.249a17.552,17.552,0,0,0,12.992,5.2A17.707,17.707,0,0,0-14.015-6.795a16.7,16.7,0,0,0,5.545-7.968Z" transform="translate(43.532 39.776)"/></g><g transform="translate(11.709 0)"><path class="a" d="M-6.91,0-18.617,6.759v10l7.58,4.376a8.255,8.255,0,0,0,8.255,0L4.8,16.757v-10Zm0,18.451a5.075,5.075,0,0,1-5.075-5.075A5.075,5.075,0,0,1-6.91,8.3a5.075,5.075,0,0,1,5.075,5.075A5.075,5.075,0,0,1-6.91,18.451" transform="translate(18.617)"/></g></g></g></svg>